REM DATE 1969
REM GENRE Prog Rock
REM DISCOGS "https://www.discogs.com/release/5863140-Awesome-Artist-Awesome-Album"

PERFORMER "Awesome Artist"
TITLE "Awesome Album (or maybe not) [800 030-2]"
FILE "Awesome Artist - Awesome Album.wav" WAVE
  TRACK 01 AUDIO
    TITLE "21st Century Schizoid Man (Including "Mirrors")"
    PERFORMER "Awesome Artist"
    INDEX 00 00:00:00
    INDEX 01 00:00:50
  TRACK 02 AUDIO
    TITLE "I Talk To The Wind"
    PERFORMER "Awesome Artist"
    INDEX 01 07:23:41
    SONGWRITER "the best of the best"
  TRACK 03 AUDIO
    TITLE "Epitaph (Including "March For No Reason" And "Tomorrow And Tomorrow")"
    PERFORMER "Awesome Artist"
    INDEX 01 13:27:24
  TRACK 04 AUDIO
    TITLE "Moonchild (Including "The Dream" And "The Illusion")"
    PERFORMER "Awesome Artist"
    INDEX 00 22:14:26
    INDEX 01 22:16:123
  TRACK 05 AUDIO
    TITLE "The Court Of The Crimson King (Including "The Return Of The Fire Witch" And "The Dance Of The Puppets")"
    PERFORMER "Awesome Artist"
    INDEX 01 34:27:48
